<svg xmlns="http://www.w3.org/2000/svg" xmlns:cc="http://web.resource.org/cc/" xmlns:svg="http://www.w3.org/2000/svg" xmlns:xlink="http://www.w3.org/1999/xlink" id="svg1256" width="48" height="48"><defs id="defs3"><linearGradient id="linearGradient2238"><stop style="stop-color:#eeeeec;stop-opacity:0" id="stop2240" offset="0"/><stop style="stop-color:#eeeeec;stop-opacity:.6082474" id="stop2242" offset="1"/></linearGradient><linearGradient id="linearGradient12512"><stop style="stop-color:#fff;stop-opacity:1" id="stop12513" offset="0"/><stop style="stop-color:#fff520;stop-opacity:.89108908" id="stop12517" offset=".5"/><stop style="stop-color:#fff300;stop-opacity:0" id="stop12514" offset="1"/></linearGradient><linearGradient id="linearGradient21644"><stop style="stop-color:#000;stop-opacity:1" id="stop21646" offset="0"/><stop style="stop-color:#000;stop-opacity:0" id="stop21648" offset="1"/></linearGradient><linearGradient id="linearGradient2116"><stop style="stop-color:#fff;stop-opacity:1" id="stop2118" offset="0"/><stop style="stop-color:#fff;stop-opacity:0" id="stop2120" offset="1"/></linearGradient><linearGradient id="linearGradient2094"><stop style="stop-color:#d6e3f0;stop-opacity:1" id="stop2096" offset="0"/><stop style="stop-color:#95b1cf;stop-opacity:1" id="stop2098" offset="1"/></linearGradient><linearGradient id="linearGradient2803"><stop id="stop2805" offset="0" style="stop-color:#fff;stop-opacity:1"/><stop id="stop2807" offset="1" style="stop-color:#cbcbcb;stop-opacity:1"/></linearGradient><linearGradient id="linearGradient2795"><stop id="stop2797" offset="0" style="stop-color:#000;stop-opacity:.068627454"/><stop id="stop2799" offset="1" style="stop-color:#fff;stop-opacity:1"/></linearGradient><linearGradient id="linearGradient2801" x1="35.433" x2="41.219" y1="4.953" y2="4.953" gradientTransform="matrix(0.254000,0.000000,1.822151e-16,3.759813,0.788629,0.148567)" gradientUnits="userSpaceOnUse" xlink:href="#linearGradient2795"/><linearGradient id="linearGradient2813" x1="10.496" x2="10.22" y1="93.338" y2="84.287" gradientTransform="matrix(2.262742,0.000000,0.000000,0.441942,1.000000,-0.875000)" gradientUnits="userSpaceOnUse" xlink:href="#linearGradient2803"/><linearGradient id="linearGradient2112" x1="73.362" x2="-2.758" y1="26.652" y2="21.27" gradientTransform="matrix(1.025428,0.000000,0.000000,0.957303,0.000000,-0.806758)" gradientUnits="userSpaceOnUse" xlink:href="#linearGradient2116"/><radialGradient id="radialGradient21650" cx="25.125" cy="36.75" r="15.75" fx="25.125" fy="36.75" gradientTransform="matrix(1.000000,0.000000,0.000000,0.595238,-6.245005e-16,14.87500)" gradientUnits="userSpaceOnUse" xlink:href="#linearGradient21644"/><linearGradient id="linearGradient2244" x1="15.604" x2="34.008" y1="18.426" y2="18.426" gradientTransform="matrix(1.119866,0,0,1.119866,-2.973443,-2.208627)" gradientUnits="userSpaceOnUse" xlink:href="#linearGradient2238"/><radialGradient id="radialGradient2261" cx="25.125" cy="36.75" r="15.75" fx="25.125" fy="36.75" gradientTransform="matrix(1,0,0,0.595238,0,14.875)" gradientUnits="userSpaceOnUse" xlink:href="#linearGradient21644"/><linearGradient id="linearGradient2263" x1="10.496" x2="10.22" y1="93.338" y2="84.287" gradientTransform="matrix(2.262742,0,0,0.441942,1,-0.875)" gradientUnits="userSpaceOnUse" xlink:href="#linearGradient2803"/><linearGradient id="linearGradient2265" x1="35.433" x2="41.219" y1="4.953" y2="4.953" gradientTransform="matrix(0.254,0,0,3.759813,0.788629,0.148567)" gradientUnits="userSpaceOnUse" xlink:href="#linearGradient2795"/><linearGradient id="linearGradient2267" x1="73.362" x2="-2.758" y1="26.652" y2="21.27" gradientTransform="matrix(1.025428,0,0,0.957303,0,-0.806758)" gradientUnits="userSpaceOnUse" xlink:href="#linearGradient2116"/><radialGradient id="radialGradient2297" cx="25.125" cy="36.75" r="15.75" fx="25.125" fy="36.75" gradientTransform="matrix(1,0,0,0.595238,-2.475451e-15,14.875)" gradientUnits="userSpaceOnUse" xlink:href="#linearGradient21644"/><linearGradient id="linearGradient2299" x1="10.496" x2="10.22" y1="93.338" y2="84.287" gradientTransform="matrix(2.262742,0,0,0.441942,1,-0.875)" gradientUnits="userSpaceOnUse" xlink:href="#linearGradient2803"/><linearGradient id="linearGradient2301" x1="35.433" x2="41.219" y1="4.953" y2="4.953" gradientTransform="matrix(0.254,0,2.04992e-16,3.759813,0.788629,0.148567)" gradientUnits="userSpaceOnUse" xlink:href="#linearGradient2795"/><linearGradient id="linearGradient2303" x1="73.362" x2="-2.758" y1="26.652" y2="21.27" gradientTransform="matrix(1.025428,0,0,0.957303,0,-0.806758)" gradientUnits="userSpaceOnUse" xlink:href="#linearGradient2116"/><radialGradient id="radialGradient2333" cx="25.125" cy="36.75" r="15.75" fx="25.125" fy="36.75" gradientTransform="matrix(1,0,0,0.595238,-1.703499e-15,14.875)" gradientUnits="userSpaceOnUse" xlink:href="#linearGradient21644"/><linearGradient id="linearGradient2335" x1="10.496" x2="10.22" y1="93.338" y2="84.287" gradientTransform="matrix(2.262742,0,0,0.441942,1,-0.875)" gradientUnits="userSpaceOnUse" xlink:href="#linearGradient2803"/><linearGradient id="linearGradient2337" x1="35.433" x2="41.219" y1="4.953" y2="4.953" gradientTransform="matrix(0.254,0,2.04992e-16,3.759813,0.788629,0.148567)" gradientUnits="userSpaceOnUse" xlink:href="#linearGradient2795"/><linearGradient id="linearGradient2339" x1="73.362" x2="-2.758" y1="26.652" y2="21.27" gradientTransform="matrix(1.025428,0,0,0.957303,0,-0.806758)" gradientUnits="userSpaceOnUse" xlink:href="#linearGradient2116"/><linearGradient id="linearGradient2308" x1="73.362" x2="-2.758" y1="26.652" y2="21.27" gradientTransform="matrix(1.0166107,0,0,0.932272,-1.2307673,0.319576)" gradientUnits="userSpaceOnUse" xlink:href="#linearGradient2116"/><linearGradient id="linearGradient2311" x1="35.433" x2="41.219" y1="4.953" y2="4.953" gradientTransform="matrix(0.2518159,0,0,3.6615894,-0.4085825,1.2506609)" gradientUnits="userSpaceOnUse" xlink:href="#linearGradient2795"/><linearGradient id="linearGradient2315" x1="10.496" x2="10.22" y1="93.338" y2="84.287" gradientTransform="matrix(2.2432853,0,0,0.4303864,-0.2393661,0.2531184)" gradientUnits="userSpaceOnUse" xlink:href="#linearGradient2803"/><radialGradient id="radialGradient2325" cx="25.125" cy="36.75" r="15.75" fx="25.125" fy="36.75" gradientTransform="matrix(1,0,0,0.595238,0,14.875)" gradientUnits="userSpaceOnUse" xlink:href="#linearGradient21644"/></defs><metadata id="metadata4"/><g id="layer1"><path style="color:#000;fill:#edd400;fill-opacity:1;fill-rule:evenodd;stroke:#c4a000;stroke-width:1;stroke-linecap:round;stroke-linejoin:round;marker:none;marker-start:none;marker-mid:none;marker-end:none;stroke-miterlimit:4;stroke-dasharray:none;stroke-dashoffset:0;stroke-opacity:1;visibility:visible;display:inline;overflow:visible" id="path21630" d="M 31.581103,5.6356215 L 38.941882,5.6356215 C 39.642908,5.6356215 40.168678,5.807776 40.343933,6.6685477 L 41.220217,13.382573 C 41.307845,14.4155 40.847797,14.759808 39.905794,14.759808 L 31.405845,14.759808 L 31.581103,5.6356215 z"/><path id="path21632" d="M 32.578941,6.5000007 L 38.884806,6.5000007 C 39.190306,6.5000007 39.357465,6.5285497 39.40286,6.8044014 L 40.187489,12.847001 C 40.256659,13.254926 40.36833,13.48624 40.048418,13.5 L 32.440604,13.5 L 32.578941,6.5000007 z" style="opacity:.48538011;color:#000;fill:none;fill-opacity:1;fill-rule:evenodd;stroke:#fff;stroke-width:1.0000006;stroke-linecap:round;stroke-linejoin:round;marker:none;marker-start:none;marker-mid:none;marker-end:none;stroke-miterlimit:4;stroke-dasharray:none;stroke-dashoffset:0;stroke-opacity:1;visibility:visible;display:inline;overflow:visible"/><path id="path21634" d="M 33.675258,13.500001 L 41.036037,13.500001 C 41.737063,13.500001 42.262833,13.669812 42.438089,14.518868 L 43.314372,21.14151 C 43.402,22.160378 42.941952,22.500001 41.999949,22.500001 L 33.5,22.500001 L 33.675258,13.500001 z" style="color:#000;fill:#9db029;fill-opacity:1;fill-rule:evenodd;stroke:#727e0a;stroke-width:1.00000012;stroke-linecap:round;stroke-linejoin:round;marker:none;marker-start:none;marker-mid:none;marker-end:none;stroke-miterlimit:4;stroke-dasharray:none;stroke-dashoffset:0;stroke-opacity:1;visibility:visible;display:inline;overflow:visible"/><path style="opacity:.48538011;color:#000;fill:none;fill-opacity:1;fill-rule:evenodd;stroke:#fff;stroke-width:1.0000006;stroke-linecap:round;stroke-linejoin:round;marker:none;marker-start:none;marker-mid:none;marker-end:none;stroke-miterlimit:4;stroke-dasharray:none;stroke-dashoffset:0;stroke-opacity:1;visibility:visible;display:inline;overflow:visible" id="path21636" d="M 34.673097,14.500001 L 40.978961,14.500001 C 41.284461,14.500001 41.451622,14.528548 41.497015,14.8044 L 42.281645,20.846998 C 42.350814,21.254925 42.462485,21.486241 42.142573,21.5 L 34.534759,21.5 L 34.673097,14.500001 z"/><path style="color:#000;fill:url(#radialGradient2325);fill-opacity:1;fill-rule:evenodd;stroke:none;stroke-width:1;stroke-linecap:round;stroke-linejoin:round;marker:none;marker-start:none;marker-mid:none;marker-end:none;stroke-miterlimit:4;stroke-dasharray:none;stroke-dashoffset:0;stroke-opacity:1;visibility:visible;display:inline;overflow:visible" id="path21642" d="M 40.875 36.75 A 15.75 9.375 0 1 1 9.375,36.75 A 15.75 9.375 0 1 1 40.875 36.75 z" transform="matrix(1.2884376,0,0,0.889376,-10.079102,6.9775298)"/><path style="color:#000;fill:#ef2929;fill-opacity:1;fill-rule:evenodd;stroke:#c00;stroke-width:.99999988;stroke-linecap:round;stroke-linejoin:round;marker:none;marker-start:none;marker-mid:none;marker-end:none;stroke-miterlimit:4;stroke-dasharray:none;stroke-dashoffset:0;stroke-opacity:1;visibility:visible;display:inline;overflow:visible" id="path21638" d="M 34.523635,21.5 L 42.896425,21.5 C 43.693835,21.5 44.291889,21.688679 44.491242,22.632075 L 45.488003,29.990566 C 45.587678,31.122641 45.06438,31.499999 43.992861,31.499999 L 34.324282,31.499999 L 34.523635,21.5 z"/><path id="path21640" d="M 35.658665,22.500001 L 42.831503,22.500001 C 43.179004,22.500001 43.369147,22.532629 43.420783,22.847889 L 44.313288,29.753713 C 44.391967,30.219915 44.518991,30.484276 44.155096,30.5 L 35.501306,30.5 L 35.658665,22.500001 z" style="opacity:.48538011;color:#000;fill:none;fill-opacity:1;fill-rule:evenodd;stroke:#fff;stroke-width:1.0000006;stroke-linecap:round;stroke-linejoin:round;marker:none;marker-start:none;marker-mid:none;marker-end:none;stroke-miterlimit:4;stroke-dasharray:none;stroke-dashoffset:0;stroke-opacity:1;visibility:visible;display:inline;overflow:visible"/><path style="color:#000;fill:#a40000;fill-opacity:1;fill-rule:nonzero;stroke:#690000;stroke-width:1.00000012;stroke-linecap:round;stroke-linejoin:round;marker:none;marker-start:none;marker-mid:none;marker-end:none;stroke-miterlimit:4;stroke-dashoffset:0;stroke-opacity:1;visibility:visible;display:inline;overflow:visible" id="rect1408" d="M 5.07883,6.4795325 C 5.1688321,4.6146151 6.0778108,3.4999992 7.7700445,3.4999992 L 36.844769,3.4999992 C 37.089234,3.4999992 37.408421,3.6949153 37.432904,3.9381657 L 40.663365,36.034634 L 39.359372,36.089787 L 39.983201,42.366905 C 40.043689,42.975545 39.803401,43.5 38.920986,43.5 L 8.4743624,43.5 C 5.9635647,43.5 3.383061,41.617275 3.5040995,39.109257 L 5.07883,6.4795325 z"/><path id="path2489" d="M 38.549208,35.068349 L 9.6126844,35.068349 C 8.06955,35.241566 6.8243679,36.549696 6.8243679,38.111639 C 6.8243679,39.673582 8.06955,40.85998 9.6126844,41.033197 L 38.549208,41.154928 L 38.549208,41.094062 C 36.907823,41.017953 35.575004,39.742696 35.575004,38.111639 C 35.575004,36.480582 36.907823,35.205324 38.549208,35.129215 L 38.549208,35.068349 z" style="color:#000;fill:url(#linearGradient2315);fill-opacity:1;fill-rule:nonzero;stroke:none;stroke-width:1;stroke-linecap:round;stroke-linejoin:round;marker:none;marker-start:none;marker-mid:none;marker-end:none;stroke-miterlimit:4;stroke-dashoffset:0;stroke-opacity:1;visibility:visible;display:inline;overflow:visible"/><path id="path2784" d="M 8.3734323,3.8441998 C 6.6811993,3.8441998 5.7587136,4.8268231 5.6780602,6.6307483 L 4.0360519,37.941966 C 3.9448826,40.939901 5.8472162,42.64442 7.8157691,43.133066 C 3.6023138,41.545032 4.159977,34.376383 9.4267964,34.406345 L 40.059396,34.406345 L 36.775379,4.2636802 C 36.74984,4.0292614 36.430462,3.8441998 36.186735,3.8441998 L 8.3734323,3.8441998 z" style="color:#000;fill:#c00;fill-opacity:1;fill-rule:nonzero;stroke:none;stroke-width:1;stroke-linecap:round;stroke-linejoin:round;marker:none;marker-start:none;marker-mid:none;marker-end:none;stroke-miterlimit:4;stroke-dashoffset:0;stroke-opacity:1;visibility:visible;display:inline;overflow:visible"/><rect id="rect2793" width="2.094" height="28.638" x="8.514" y="4.971" transform="matrix(1,0,-3.6472058e-2,0.9993347,0,0)" style="opacity:.48044691;color:#000;fill:url(#linearGradient2311);fill-opacity:1;fill-rule:nonzero;stroke:none;stroke-width:1;stroke-linecap:round;stroke-linejoin:round;marker:none;marker-start:none;marker-mid:none;marker-end:none;stroke-miterlimit:4;stroke-dashoffset:0;stroke-opacity:.60818715;visibility:visible;display:inline;overflow:visible"/><path style="color:#000;fill:none;fill-opacity:1;fill-rule:nonzero;stroke:url(#linearGradient2308);stroke-width:1.00000012;stroke-linecap:round;stroke-linejoin:miter;marker:none;marker-start:none;marker-mid:none;marker-end:none;stroke-miterlimit:20;stroke-dasharray:none;stroke-dashoffset:0;stroke-opacity:1;visibility:visible;display:inline;overflow:visible" id="path2104" d="M 8.5594206,4.3517555 C 6.8900004,4.3517555 6.2428356,5.0647742 6.1632694,6.8391192 L 4.8755343,35.946958 C 5.8008372,34.382224 7.2941528,33.821271 9.6862114,33.821271 L 39.380084,33.821271 L 36.578482,4.7643574 C 36.556222,4.5335018 36.238215,4.3517555 35.997774,4.3517555 L 8.5594206,4.3517555 z"/><path style="font-size:28px;font-style:normal;font-variant:normal;font-weight:700;font-stretch:normal;text-align:start;line-height:0%;writing-mode:lr-tb;text-anchor:start;fill:#eeeeec;fill-opacity:.69945356;stroke:none;stroke-width:1px;stroke-linecap:butt;stroke-linejoin:miter;stroke-opacity:1;font-family:Bitstream Vera Sans" id="path2236" d="M 19.937774,12.124759 C 19.885175,16.191873 19.832577,20.258986 19.779978,24.3261 C 22.076793,24.387341 24.724687,24.427455 26.486196,22.732597 C 28.099695,21.081977 27.438055,18.348695 27.21663,16.223336 C 26.425872,12.718441 22.218936,12.292828 21.645207,12.222394 M 15.315065,8.5815003 C 19.324561,8.75385 22.696746,8.3994009 26.553301,9.8073358 C 29.083983,10.831543 31.098993,12.669783 31.722876,15.2815 C 32.806207,18.802414 33.03704,23.00841 30.41742,25.776889 C 28.246881,27.726319 25.166,28.082723 22.348225,28.160375 C 19.94756,28.258765 17.234854,28.160383 14.833374,28.20512 C 14.800458,26.766267 15.160368,14.083916 15.315065,8.5815003 z"/></g></svg>